<?xml version="1.0" encoding="iso-8859-1"?>
<!-- Generator: Adobe Illustrator 19.0.0, SVG Export Plug-In . SVG Version: 6.00 Build 0)  -->
<svg version="1.1" id="Layer_1" xmlns="http://www.w3.org/2000/svg" xmlns:xlink="http://www.w3.org/1999/xlink" x="0px" y="0px"
	 viewBox="0 0 512 512" style="enable-background:new 0 0 512 512;" xml:space="preserve">
<g>
	<g>
		<path d="M501.801,133.865H157.757v-30.598c0-5.632-4.567-10.199-10.199-10.199h-14.279V76.239c0-5.632-4.567-10.199-10.199-10.199
			H69.355c-5.632,0-10.199,4.567-10.199,10.199v16.829H44.877c-5.632,0-10.199,4.567-10.199,10.199v30.598H10.199
			C4.567,133.865,0,138.432,0,144.064v291.697c0,5.632,4.567,10.199,10.199,10.199h491.602c5.632,0,10.199-4.567,10.199-10.199
			V144.064C512,138.432,507.433,133.865,501.801,133.865z M79.554,86.438h33.327v6.63H79.554V86.438z M55.076,113.466h82.283v19.888
			H55.076V113.466z M491.602,425.562H20.398V154.263h471.203V425.562z"/>
	</g>
</g>
<g>
	<g>
		<path d="M256,169.562c-66.361,0-120.351,53.99-120.351,120.351c0,66.361,53.99,120.351,120.351,120.351
			s120.351-53.989,120.351-120.351C376.351,223.551,322.361,169.562,256,169.562z M256,389.865
			c-55.113,0-99.952-44.839-99.952-99.952S200.887,189.96,256,189.96s99.952,44.839,99.952,99.952S311.113,389.865,256,389.865z"/>
	</g>
</g>
<g>
	<g>
		<path d="M256,202.199c-48.366,0-87.713,39.347-87.713,87.713s39.347,87.713,87.713,87.713s87.713-39.347,87.713-87.713
			C343.713,241.547,304.366,202.199,256,202.199z M256,357.227c-37.118,0-67.315-30.197-67.315-67.315s30.197-67.315,67.315-67.315
			s67.315,30.197,67.315,67.315S293.118,357.227,256,357.227z"/>
	</g>
</g>
<g>
	<g>
		<path d="M256,241.976c-26.432,0-47.936,21.504-47.936,47.936s21.504,47.936,47.936,47.936s47.936-21.504,47.936-47.936
			S282.432,241.976,256,241.976z M256,317.45c-15.185,0-27.538-12.353-27.538-27.538s12.353-27.538,27.538-27.538
			s27.538,12.353,27.538,27.538S271.185,317.45,256,317.45z"/>
	</g>
</g>
<g>
	<g>
		<path d="M451.825,165.992c-15.185,0-27.538,12.353-27.538,27.538s12.353,27.538,27.538,27.538s27.538-12.353,27.538-27.538
			S467.009,165.992,451.825,165.992z M451.825,200.669c-3.936,0-7.139-3.204-7.139-7.139c0-3.936,3.204-7.139,7.139-7.139
			c3.936,0,7.139,3.204,7.139,7.139C458.964,197.466,455.761,200.669,451.825,200.669z"/>
	</g>
</g>
<g>
	<g>
		<path d="M48.956,180.016c-5.632,0-10.199,4.567-10.199,10.199v157.068c0,5.632,4.567,10.199,10.199,10.199
			s10.199-4.567,10.199-10.199V190.215C59.155,184.583,54.588,180.016,48.956,180.016z"/>
	</g>
</g>
<g>
	<g>
		<path d="M48.956,373.801c-5.632,0-10.199,4.567-10.199,10.199v12.239c0,5.632,4.567,10.199,10.199,10.199
			s10.199-4.567,10.199-10.199V384C59.155,378.368,54.588,373.801,48.956,373.801z"/>
	</g>
</g>
<g>
</g>
<g>
</g>
<g>
</g>
<g>
</g>
<g>
</g>
<g>
</g>
<g>
</g>
<g>
</g>
<g>
</g>
<g>
</g>
<g>
</g>
<g>
</g>
<g>
</g>
<g>
</g>
<g>
</g>
</svg>
